<svg width="77" height="76" viewBox="0 0 77 76" fill="none" xmlns="http://www.w3.org/2000/svg">
<rect x="0.356445" y="0.155731" width="76.5492" height="75.3893" rx="10" fill="#EDF5FB"/>
<path d="M50.457 24.1001H24.9238C24.0227 24.1001 23.4219 23.4993 23.4219 22.5982C23.4219 21.697 24.0227 21.0962 24.9238 21.0962H50.457C51.3582 21.0962 51.959 21.697 51.959 22.5982C51.959 23.4993 51.3582 24.1001 50.457 24.1001Z" fill="#F2D4B7"/>
<path d="M59.0778 58.6658L54.8989 54.52C55.9436 53.0393 56.3914 51.4106 56.3914 49.6339C56.3914 44.7477 52.3618 40.75 47.586 40.75C42.8102 40.75 38.6313 44.7477 38.6313 49.6339C38.6313 54.52 42.6609 58.5177 47.4367 58.5177C49.2277 58.5177 51.0186 57.9254 52.3618 57.0371L56.5406 61.1829C57.1376 61.7751 58.3315 61.7751 58.9285 61.1829C59.6747 60.4425 59.6747 59.258 59.0778 58.6658Z" fill="#F2D4B7"/>
<path d="M35.7317 49.2002C35.7317 42.6389 41.2356 37.2705 47.8098 37.2705C49.4916 37.2705 51.0204 37.5687 52.5493 38.1652V26.832C52.5493 25.9372 51.9378 25.3408 51.0204 25.3408H28.0873H25.0296C23.3478 25.3408 21.9718 23.9987 21.9718 22.3583C21.9718 20.718 23.3478 19.3759 25.0296 19.3759H51.0204C51.9378 19.3759 52.5493 18.7794 52.5493 17.8847C52.5493 16.9899 51.9378 16.3934 51.0204 16.3934H25.0296C21.666 16.3934 18.9141 19.0776 18.9141 22.3583V52.1827C18.9141 55.4634 21.666 58.1475 25.0296 58.1475H28.0873H40.0125C37.4134 55.9107 35.7317 52.7792 35.7317 49.2002Z" fill="#577CFF"/>
</svg>
