<svg width="76" height="75" viewBox="0 0 76 75" fill="none" xmlns="http://www.w3.org/2000/svg">
<rect width="76" height="75" rx="10" fill="#EDF5FB"/>
<path d="M30.2188 30.173L30.4807 30.1505C30.5799 30.1392 30.6697 30.1036 30.7446 30.0511L30.7427 30.053C30.9935 30.9193 31.3004 31.8305 31.684 32.7849C32.1761 34.0337 32.6608 35.0594 33.2034 36.0494L33.1286 35.8994C33.0837 36.5819 33.0294 37.2832 32.9583 37.962C32.9246 38.3801 32.8423 38.7701 32.7169 39.1376L32.7263 39.1039C32.7038 39.1133 32.672 43.004 32.672 43.004C32.6739 45.541 34.4273 47.6654 36.7851 48.2298L36.8225 48.2373C36.9291 47.9654 37.1874 47.776 37.4905 47.776H38.5646C38.8659 47.7798 39.1241 47.9673 39.2308 48.2317L39.2327 48.2373C41.6335 47.671 43.3944 45.5466 43.4037 43.0078C43.4037 43.0078 43.3382 39.132 43.3046 39.1058C43.2016 38.7776 43.1193 38.3914 43.0763 37.9938L43.0744 37.9657C43.0089 37.2832 42.9659 36.5988 42.9041 35.9032C43.3663 35.0669 43.851 34.0431 44.2776 32.9874L44.3487 32.7887C44.7323 31.8343 45.0299 30.9249 45.29 30.0567C45.363 30.1092 45.4528 30.1449 45.5501 30.1561H45.552L45.8158 30.1786C46.1339 30.2124 46.4146 29.9498 46.4408 29.543L46.7252 25.9222C46.7252 25.9203 46.7252 25.9185 46.7252 25.9185C46.7252 25.6128 46.4969 25.3616 46.2032 25.3241H46.1994H46.1676C46.2406 24.7972 46.2818 24.1897 46.2818 23.5728C46.2818 22.2265 46.0834 20.9252 45.7148 19.7008L45.7391 19.7964C44.6594 17.4226 42.5186 15.6994 39.94 15.2175L39.8914 15.21C39.3375 15.0956 38.6919 15.0188 38.0332 15H38.0163H37.9939C37.3221 15.0131 36.6765 15.0881 36.0515 15.2213L36.1189 15.21C33.4954 15.705 31.3584 17.4282 30.2917 19.7458L30.2712 19.7964C29.9231 20.9214 29.7229 22.2152 29.7229 23.554C29.7229 24.1784 29.7659 24.7934 29.8501 25.3935L29.8426 25.3241C29.5451 25.3578 29.3149 25.6072 29.3149 25.911V25.9241L29.5994 29.5448C29.6256 29.9611 29.91 30.2124 30.2169 30.1786L30.2188 30.173Z" fill="#F7DECE"/>
<path d="M58.0767 54.1358C57.9457 48.4357 57.3768 47.1456 57.0699 46.2718C56.9483 45.9212 56.8491 43.5511 52.9419 42.0136C50.5467 41.0686 47.4553 41.0498 44.8393 39.9416V43.0242C44.8337 46.3393 42.4647 49.0976 39.3303 49.6995L39.2872 49.707C39.2292 50.0482 38.9373 50.3032 38.5874 50.307H38.5537V52.632C38.5537 54.9046 40.3913 56.7459 42.6593 56.7459C44.9273 56.7459 46.7648 54.9046 46.7648 52.632V51.0082C45.6271 50.8376 44.7645 49.8663 44.7645 48.6925C44.7645 47.4006 45.8105 46.3525 47.0998 46.3525C48.3891 46.3525 49.4351 47.4006 49.4351 48.6925C49.4351 49.7163 48.7783 50.5864 47.8652 50.9051L47.8483 50.9107V52.632V52.7202C47.8483 55.5928 45.5242 57.9216 42.6574 57.9216C39.7906 57.9216 37.4665 55.5928 37.4665 52.7202C37.4665 52.6883 37.4665 52.6583 37.4665 52.6264V52.6302V50.2845C37.1334 50.262 36.8639 50.0107 36.8116 49.6882V49.6845C33.6491 49.0676 31.2913 46.3187 31.2838 43.0167V39.9098C28.6566 41.0404 25.5465 41.0629 23.1382 42.0098C19.2197 43.5455 19.1299 45.91 19.0102 46.2662C18.7108 47.1437 18.1344 48.4282 18.0034 54.1321C17.981 54.8821 18.0034 56.0315 20.2602 57.0366C25.1741 58.9679 31.5046 59.5679 37.7453 59.9991H38.3441C44.5979 59.5716 50.9191 58.9735 55.8293 57.0366C58.0767 56.0372 58.0973 54.8934 58.0767 54.1358ZM30.6045 51.8108H28.2729V54.1565H26.6075V51.8183H24.2759V50.1495H26.6075V47.8131H28.2729V50.1495H30.6045V51.8108Z" fill="#577CFF"/>
<path d="M48.3615 48.6734C48.3615 47.9759 47.7983 47.4096 47.1021 47.4096C46.406 47.4096 45.8428 47.974 45.8428 48.6716C45.8428 49.3691 46.406 49.9335 47.1021 49.9335C47.7964 49.9335 48.3596 49.3691 48.3615 48.6734Z" fill="black"/>
</svg>
