<svg width="77" height="77" viewBox="0 0 77 77" fill="none" xmlns="http://www.w3.org/2000/svg">
<rect x="0.356445" y="0.155487" width="76.5492" height="76.5485" rx="10" fill="#EDF5FB"/>
<path d="M46.6345 48.6491V42.3504H29.9922V48.6491L38.3134 55.8478L46.6345 48.6491Z" fill="#E6AF78" fill-opacity="0.56"/>
<path d="M59.5013 51.5958L48.0604 48.9759C47.8876 48.9363 47.7287 48.8691 47.5799 48.7877L38.3135 54.0485L29.4083 48.5332C29.1778 48.7445 28.8917 48.9014 28.5666 48.976L17.1257 51.5959C15.4551 51.9785 14.2744 53.4293 14.2744 55.0996V62.147C14.2744 63.141 15.1023 63.9467 16.1235 63.9467H60.5032C61.5245 63.9467 62.3523 63.1409 62.3523 62.147V55.0996C62.3525 53.4292 61.1718 51.9783 59.5013 51.5958Z" fill="#577CFF"/>
<path d="M29.9922 42.3505V48.9962C40.4746 52.6719 46.6345 43.4726 46.6345 43.4726V42.3504H29.9922V42.3505Z" fill="#D29B6E" fill-opacity="0.34"/>
<path d="M26.2954 21.6549L27.1011 38.9059C27.1763 40.5174 27.9883 42.012 29.3143 42.9799L33.1372 45.7704C34.0975 46.4712 35.2654 46.8502 36.4657 46.8502H40.1641C41.3644 46.8502 42.5323 46.4713 43.4926 45.7704L47.3155 42.9799C48.6415 42.0119 49.4535 40.5175 49.5287 38.9059L50.3343 21.6549H26.2954Z" fill="#F7DECE"/>
<path d="M35.5412 25.2543C39.2396 25.2543 44.787 24.3544 46.1027 21.6549H26.2954L27.1011 38.9059C27.1763 40.5174 27.9883 42.0119 29.3144 42.9799L33.1373 45.7704C34.0976 46.4712 35.2655 46.8502 36.4658 46.8502H38.3149C36.4658 46.8502 32.7675 43.2508 32.7675 38.7517C32.7675 36.5513 32.7675 30.6533 32.7675 27.9537C32.7675 27.0539 33.692 25.2543 35.5412 25.2543Z" fill="#F2D4B7"/>
<path d="M21.0654 58.1045L15.0742 52.8667C14.5722 53.4853 14.2778 54.2638 14.2778 55.0973V62.1448C14.2778 63.1388 15.1057 63.9444 16.127 63.9444H22.599V61.4516C22.5989 60.1746 22.0413 58.9577 21.0654 58.1045Z" fill="#7F9BFF"/>
<path d="M55.5678 58.1045L61.559 52.8667C62.061 53.4853 62.3553 54.2638 62.3553 55.0973V62.1448C62.3553 63.1388 61.5275 63.9444 60.5062 63.9444H54.0342V61.4516C54.0342 60.1746 54.5917 58.9577 55.5678 58.1045Z" fill="#7F9BFF"/>
<path d="M29.8611 46.6471L38.3121 54.0494C38.3121 54.0494 35.9454 55.2122 33.0247 57.5559C32.4223 58.0393 31.5109 57.8435 31.1878 57.1516L27.2173 48.6505L28.4734 46.8169C28.7859 46.3602 29.442 46.2801 29.8611 46.6471Z" fill="#7F9BFF"/>
<path d="M46.7635 46.6471L38.3125 54.0494C38.3125 54.0494 40.6793 55.2122 43.5999 57.5559C44.2024 58.0393 45.1137 57.8435 45.4369 57.1516L49.4074 48.6505L48.1513 46.8169C47.8386 46.3602 47.1825 46.2801 46.7635 46.6471Z" fill="#7F9BFF"/>
<path d="M43.916 15.6939L44.7828 21.6553C48.7394 22.4254 49.3096 28.4686 49.3917 30.1947C49.4066 30.5079 49.5094 30.8104 49.684 31.0739L51.1936 33.353C51.1936 33.353 50.6769 29.585 53.0428 27.0542C53.0428 27.0542 53.8552 12.0945 43.916 15.6939Z" fill="#404040"/>
<path d="M27.181 14.081L28.5485 14.9902C22.3655 19.4331 23.5211 27.0536 23.5211 27.0536C25.3702 28.8533 25.3702 33.3525 25.3702 33.3525L27.2194 31.5528C27.2194 31.5528 26.5057 26.3541 29.993 24.3542C33.2291 22.4983 36.0606 23.4544 38.9499 23.4544C46.6932 23.4544 48.8602 20.6142 48.4846 17.1555C48.2902 15.3659 45.4787 11.6379 38.3143 11.7565C35.423 11.8043 29.9932 12.6563 27.181 14.081Z" fill="#242424"/>
</svg>
